<svg xmlns="http://www.w3.org/2000/svg" width="184.448" height="57.839" viewBox="0 0 184.448 57.839">
  <g id="logotype" transform="translate(0 -13.4)">
    <g id="Grupo_4" data-name="Grupo 4" transform="translate(0 16.603)">
      <path id="Trazado_4" data-name="Trazado 4" d="M228.426,65.7a1.873,1.873,0,0,0-1.926,1.926V92.813a1.926,1.926,0,0,0,3.853,0V67.65A1.89,1.89,0,0,0,228.426,65.7Z" transform="translate(-171.96 -56.309)" fill="#fff"/>
      <path id="Trazado_5" data-name="Trazado 5" d="M416.06,28.626a1.926,1.926,0,0,0-3.853,0V40.811a14.6,14.6,0,1,0,3.732,9.824V50.37l.12-21.744Zm-3.732,21.984h0a10.644,10.644,0,1,1-21.286.144,10.454,10.454,0,0,1,10.643-10.523,10.646,10.646,0,0,1,10.643,10.234Z" transform="translate(-293.737 -26.7)" fill="#fff"/>
      <path id="Trazado_6" data-name="Trazado 6" d="M531.72,65.7A14.529,14.529,0,0,0,517.2,79.955h0v.289h0V92.982a1.926,1.926,0,1,0,3.853,0V80.22A10.732,10.732,0,0,1,531.7,69.7,10.621,10.621,0,0,1,542.339,80.22h0V92.958a1.926,1.926,0,0,0,3.853,0V80.22A14.526,14.526,0,0,0,531.72,65.7Z" transform="translate(-392.661 -56.309)" fill="#fff"/>
      <path id="Trazado_7" data-name="Trazado 7" d="M150.72,65.7h0A14.451,14.451,0,0,0,136.2,79.955h0v.289h0V92.982a1.926,1.926,0,0,0,3.853,0V80.22A10.732,10.732,0,0,1,150.7,69.7s2.625.144,2.625-2.071C153.224,65.7,150.72,65.7,150.72,65.7Z" transform="translate(-103.404 -56.309)" fill="#fff"/>
      <path id="Trazado_8" data-name="Trazado 8" d="M14.52,65.7a14.52,14.52,0,1,0,0,29.04,15.078,15.078,0,0,0,8.861-2.914l2.48,2.48h0a2.07,2.07,0,0,0,1.252.554,1.873,1.873,0,0,0,1.926-1.926V80.461A14.635,14.635,0,0,0,14.52,65.7Zm.144,25.331A10.583,10.583,0,1,1,25.307,80.509,10.454,10.454,0,0,1,14.664,91.031Z" transform="translate(0 -56.309)" fill="#fff"/>
      <path id="Trazado_9" data-name="Trazado 9" d="M272.02,65.7a14.52,14.52,0,0,0,0,29.04,15.078,15.078,0,0,0,8.861-2.914l2.48,2.48h0a2.07,2.07,0,0,0,1.252.554,1.873,1.873,0,0,0,1.926-1.926V80.461A14.666,14.666,0,0,0,272.02,65.7Zm0,25.331a10.643,10.643,0,1,1,10.643-10.643A10.394,10.394,0,0,1,272.02,91.031Z" transform="translate(-195.496 -56.309)" fill="#fff"/>
      <path id="Trazado_10" data-name="Trazado 10" d="M659.32,65.7a14.52,14.52,0,1,0,0,29.04,15.078,15.078,0,0,0,8.861-2.914l2.48,2.48h0a2.07,2.07,0,0,0,1.252.554,1.873,1.873,0,0,0,1.926-1.926V80.461A14.574,14.574,0,0,0,659.32,65.7Zm.144,25.331a10.643,10.643,0,0,1,0-21.286,10.644,10.644,0,1,1,0,21.286Z" transform="translate(-489.536 -56.309)" fill="#fff"/>
    </g>
    <path id="Trazado_11" data-name="Trazado 11" d="M696.161,17.831a4.431,4.431,0,1,1-4.431-4.431A4.465,4.465,0,0,1,696.161,17.831Z" transform="translate(-521.802 0)" fill="#f7bb29"/>
    <path id="Trazado_12" data-name="Trazado 12" d="M653.561,17.831A4.431,4.431,0,1,1,649.13,13.4,4.45,4.45,0,0,1,653.561,17.831Z" transform="translate(-489.46 0)" fill="#fab12f"/>
    <path id="Trazado_13" data-name="Trazado 13" d="M738.061,17.831a4.431,4.431,0,1,1-4.431-4.431A4.449,4.449,0,0,1,738.061,17.831Z" transform="translate(-553.613 0)" fill="#fad530"/>
    <g id="Grupo_5" data-name="Grupo 5" transform="translate(32.796 57.947)">
      <path id="Trazado_14" data-name="Trazado 14" d="M136.2,214.521h0a4,4,0,0,1,3.877-4.021,4.23,4.23,0,0,1,2.769,1.108c.145,0,.145.145.145.265a.6.6,0,0,1-.554.554c-.145,0-.265,0-.265-.145a5.554,5.554,0,0,0-2.071-.7,2.819,2.819,0,0,0-2.769,2.914h0a2.733,2.733,0,0,0,2.769,2.914,2.308,2.308,0,0,0,2.071-.963.5.5,0,0,1,.265-.144.6.6,0,0,1,.554.554c0,.289,0,.265-.145.265a4.047,4.047,0,0,1-2.914,1.252C137.861,218.663,136.2,216.737,136.2,214.521Z" transform="translate(-136.2 -207.586)" fill="#fff"/>
      <path id="Trazado_15" data-name="Trazado 15" d="M166.6,214.521h0a4,4,0,0,1,3.877-4.021,3.784,3.784,0,0,1,3.877,3.877h0a3.908,3.908,0,0,1-4.021,3.877C168.261,218.663,166.6,216.881,166.6,214.521Zm6.79,0h0a2.819,2.819,0,0,0-2.769-2.914,2.733,2.733,0,0,0-2.769,2.914h0a2.733,2.733,0,0,0,2.769,2.914A2.834,2.834,0,0,0,173.39,214.521Z" transform="translate(-159.28 -207.586)" fill="#fff"/>
      <path id="Trazado_16" data-name="Trazado 16" d="M203.544,211.8c0-.265.265-.7.554-.7a.729.729,0,0,1,.7.7v.819a2.7,2.7,0,0,1,2.48-1.517,2.846,2.846,0,0,1,2.48,1.517,2.936,2.936,0,0,1,2.625-1.517c1.806,0,2.769,1.108,2.769,3.034v4.286c0,.265-.265.7-.554.7a.729.729,0,0,1-.7-.7v-3.877c0-1.517-.819-2.36-1.926-2.36a2.111,2.111,0,0,0-2.071,2.36v3.877a.747.747,0,0,1-.7.7c-.433,0-.554-.265-.554-.7v-3.877c0-1.517-.819-2.36-1.926-2.36a2.236,2.236,0,0,0-2.071,2.48v3.877c0,.265-.145.7-.554.7a.657.657,0,0,1-.7-.7V211.63h.145Z" transform="translate(-187.219 -208.042)" fill="#fff"/>
      <path id="Trazado_17" data-name="Trazado 17" d="M258.744,211.8c0-.265.265-.7.554-.7a.729.729,0,0,1,.7.7v.819a2.786,2.786,0,0,1,4.96,0,2.936,2.936,0,0,1,2.625-1.517c1.806,0,2.769,1.108,2.769,3.034v4.286c0,.265-.265.7-.554.7a.729.729,0,0,1-.7-.7v-3.877c0-1.517-.819-2.36-1.926-2.36a2.111,2.111,0,0,0-2.071,2.36v3.877a.747.747,0,0,1-.7.7.636.636,0,0,1-.554-.7v-3.877c0-1.517-.819-2.36-1.926-2.36a2.236,2.236,0,0,0-2.071,2.48v3.877c0,.265-.144.7-.554.7a.749.749,0,0,1-.7-.7V211.63h.144Z" transform="translate(-229.127 -208.042)" fill="#fff"/>
      <path id="Trazado_18" data-name="Trazado 18" d="M319.846,217.541c0,.265-.144.7-.554.7s-.554-.265-.554-.7v-.819a2.936,2.936,0,0,1-2.625,1.517A2.8,2.8,0,0,1,313.2,215.2v-4.286c0-.265.144-.7.554-.7a.657.657,0,0,1,.7.7V214.8c0,1.517.819,2.36,2.071,2.36a2.363,2.363,0,0,0,2.36-2.48V210.8c0-.265.144-.7.554-.7a.636.636,0,0,1,.554.7C319.846,210.606,319.846,217.541,319.846,217.541Z" transform="translate(-270.58 -207.283)" fill="#fff"/>
      <path id="Trazado_19" data-name="Trazado 19" d="M347.245,211.8c0-.265.265-.7.554-.7a.729.729,0,0,1,.7.7v.819a2.936,2.936,0,0,1,2.625-1.517,2.8,2.8,0,0,1,2.914,3.034v4.286c0,.265-.265.7-.554.7a.729.729,0,0,1-.7-.7v-3.877c0-1.517-.819-2.36-2.071-2.36a2.363,2.363,0,0,0-2.36,2.48v3.877c0,.265-.145.7-.554.7a.657.657,0,0,1-.7-.7C347.245,218.565,347.245,211.8,347.245,211.8Z" transform="translate(-296.317 -208.042)" fill="#fff"/>
      <path id="Trazado_20" data-name="Trazado 20" d="M381.6,199.1a.747.747,0,0,1,.7-.7.661.661,0,0,1,.7.7v.144a.7.7,0,1,1-1.4,0Zm.12,3.058c0-.265.265-.7.554-.7a.729.729,0,0,1,.7.7V208.8c0,.265-.144.7-.554.7a.747.747,0,0,1-.7-.7Z" transform="translate(-322.509 -198.4)" fill="#fff"/>
      <path id="Trazado_21" data-name="Trazado 21" d="M392.5,214.521h0a4,4,0,0,1,3.877-4.021,4.23,4.23,0,0,1,2.769,1.108c.145,0,.145.145.145.265a.6.6,0,0,1-.554.554c-.144,0-.265,0-.265-.145a2.7,2.7,0,0,0-2.071-.963,2.733,2.733,0,0,0-2.769,2.914h0a2.733,2.733,0,0,0,2.769,2.914,2.308,2.308,0,0,0,2.071-.963.5.5,0,0,1,.265-.145.6.6,0,0,1,.554.554c0,.289,0,.265-.145.265a4.047,4.047,0,0,1-2.914,1.252C394.161,218.663,392.5,216.737,392.5,214.521Z" transform="translate(-330.785 -207.586)" fill="#fff"/>
      <path id="Trazado_22" data-name="Trazado 22" d="M422.9,216.259h0c0-1.661,1.252-2.48,3.323-2.48a12.551,12.551,0,0,1,2.36.265v-.265c0-1.252-.819-2.071-2.36-2.071a2.712,2.712,0,0,0-1.926.554h-.144a.516.516,0,0,1-.554-.554c0-.144.144-.554.265-.554a7.473,7.473,0,0,1,2.48-.554,3.351,3.351,0,0,1,2.48.819,3.055,3.055,0,0,1,.819,2.36v4.286a.554.554,0,1,1-1.108,0v-.7a3.483,3.483,0,0,1-2.769,1.252A2.486,2.486,0,0,1,422.9,216.259Zm5.827-.7v-.7a8.933,8.933,0,0,0-2.36-.265c-1.517,0-2.36.7-2.36,1.661h0c0,.963.819,1.517,1.926,1.517C427.475,217.776,428.727,216.957,428.727,215.56Z" transform="translate(-353.864 -207.662)" fill="#fff"/>
      <path id="Trazado_23" data-name="Trazado 23" d="M455.152,208.887v-4.575h-.7a.554.554,0,1,1,0-1.108h.7V201.4c0-.265.144-.7.554-.7a.747.747,0,0,1,.7.7V203.2h1.926a.516.516,0,0,1,.554.554c0,.409-.145.554-.554.554H456.4v4.431a1.107,1.107,0,0,0,1.252,1.252,2.935,2.935,0,0,0,.7-.144.516.516,0,0,1,.554.554c0,.144-.144.265-.265.554a2.581,2.581,0,0,1-1.108.144C455.995,210.958,455.152,210.524,455.152,208.887Z" transform="translate(-377.4 -200.146)" fill="#fff"/>
      <path id="Trazado_24" data-name="Trazado 24" d="M478.1,199.1a.747.747,0,0,1,.7-.7.661.661,0,0,1,.7.7v.144a.7.7,0,1,1-1.4,0Zm.145,3.058c0-.265.265-.7.554-.7a.747.747,0,0,1,.7.7V208.8c0,.265-.145.7-.554.7a.747.747,0,0,1-.7-.7Z" transform="translate(-395.773 -198.4)" fill="#fff"/>
      <path id="Trazado_25" data-name="Trazado 25" d="M489,214.521h0a4,4,0,0,1,3.877-4.021,3.784,3.784,0,0,1,3.877,3.877h0a3.908,3.908,0,0,1-4.021,3.877C490.661,218.663,489,216.881,489,214.521Zm6.646,0h0a2.819,2.819,0,0,0-2.769-2.914,2.733,2.733,0,0,0-2.769,2.914h0a2.773,2.773,0,1,0,5.538,0Z" transform="translate(-404.048 -207.586)" fill="#fff"/>
      <path id="Trazado_26" data-name="Trazado 26" d="M526.444,211.8c0-.265.265-.7.554-.7a.729.729,0,0,1,.7.7v.819a2.936,2.936,0,0,1,2.625-1.517,2.8,2.8,0,0,1,2.914,3.034v4.286c0,.265-.265.7-.554.7a.729.729,0,0,1-.7-.7v-3.877c0-1.517-.819-2.36-2.071-2.36a2.363,2.363,0,0,0-2.36,2.48v3.877c0,.265-.145.7-.554.7a.747.747,0,0,1-.7-.7C526.444,218.565,526.444,211.8,526.444,211.8Z" transform="translate(-432.366 -208.042)" fill="#fff"/>
      <path id="Trazado_27" data-name="Trazado 27" d="M558.144,219.446c-.144,0-.144-.145-.144-.554s.144-.554.554-.554c.145,0,.145,0,.265.145a4.412,4.412,0,0,0,2.48.819c.963,0,1.661-.554,1.661-1.108h0c0-.819-.963-1.108-1.926-1.252-1.108-.265-2.48-.819-2.48-2.071h0c0-1.252,1.108-2.071,2.625-2.071a5.377,5.377,0,0,1,2.48.7.685.685,0,0,1,.265.554.505.505,0,0,1-.554.554H563.1a2.782,2.782,0,0,0-2.071-.963c-.963,0-1.517.554-1.517,1.108h0c0,.7.963.963,1.926,1.252,1.108.265,2.48.819,2.48,2.071h0c0,1.517-1.108,2.36-2.769,2.36A22.049,22.049,0,0,1,558.144,219.446Z" transform="translate(-456.433 -209.333)" fill="#fff"/>
      <path id="Trazado_28" data-name="Trazado 28" d="M600.052,219.876c-.265-.144-.7-.554-.7-.819a1.034,1.034,0,0,1,.963-.963h.265a5.389,5.389,0,0,0,2.071.554c1.517,0,2.36-.819,2.36-2.071v-.265a3.252,3.252,0,0,1-2.625,1.252,3.512,3.512,0,0,1-3.588-3.732h0a3.516,3.516,0,0,1,3.588-3.732,3.843,3.843,0,0,1,2.625,1.108h0a1.108,1.108,0,0,1,2.215,0v5.129c0,1.517-.265,2.48-.963,3.034a4.405,4.405,0,0,1-3.467,1.108A6.538,6.538,0,0,1,600.052,219.876Zm5.1-6.068h0A1.778,1.778,0,0,0,603.23,212a1.848,1.848,0,0,0-1.926,1.806h0a1.93,1.93,0,0,0,3.853,0Z" transform="translate(-487.409 -207.283)" fill="#fff"/>
      <path id="Trazado_29" data-name="Trazado 29" d="M638.4,210.552a1.108,1.108,0,1,1,2.215,0v.265c.265-.819.819-1.517,1.517-1.517a1.088,1.088,0,0,1,1.108,1.108c0,.7-.265.963-.819.963-1.108.265-1.806,1.108-1.806,2.769v2.071a1.108,1.108,0,0,1-2.215,0v-5.659Z" transform="translate(-517.473 -206.675)" fill="#fff"/>
      <path id="Trazado_30" data-name="Trazado 30" d="M658.5,214.521h0a4.008,4.008,0,0,1,4.286-4.021,4.094,4.094,0,0,1,4.286,4.021h0a4.295,4.295,0,0,1-8.572,0Zm6.381,0h0a2.279,2.279,0,0,0-2.071-2.36,2.025,2.025,0,0,0-2.071,2.071h0a2.025,2.025,0,0,0,2.071,2.071C664.038,216.737,664.881,215.629,664.881,214.521Z" transform="translate(-532.733 -207.586)" fill="#fff"/>
      <path id="Trazado_31" data-name="Trazado 31" d="M704.2,216.835a1.108,1.108,0,1,1-2.215,0v-.144a2.682,2.682,0,0,1-2.36,1.252c-1.662,0-2.625-1.108-2.625-2.914v-4.021a1.108,1.108,0,1,1,2.215,0v3.467c0,.963.554,1.661,1.252,1.661a1.5,1.5,0,0,0,1.517-1.661v-3.467a1.108,1.108,0,1,1,2.215,0v5.827Z" transform="translate(-561.963 -207.131)" fill="#fff"/>
      <path id="Trazado_32" data-name="Trazado 32" d="M731.5,211.008a1.108,1.108,0,0,1,2.215,0v.145a2.672,2.672,0,0,1,2.48-1.252,3.757,3.757,0,0,1,3.588,4.021h0a3.7,3.7,0,0,1-3.588,4.021,3.481,3.481,0,0,1-2.48-1.108v2.48a1.088,1.088,0,0,1-1.108,1.108,1.191,1.191,0,0,1-1.108-1.108Zm6.092,2.914h0a2.178,2.178,0,0,0-1.926-2.36,2,2,0,0,0-1.926,2.071h0a1.912,1.912,0,0,0,1.926,2.071C736.773,216.281,737.592,215.438,737.592,213.921Z" transform="translate(-588.155 -207.131)" fill="#fff"/>
    </g>
  </g>
</svg>
